PathFileType	4	(X/Y/Z)	D:\TRACE\v60_Jaco2_6-2-23\BothDRS_Motion2_2-v60.trc
DataRate	CameraRate	NumFrames	NumMarkers	Units	OrigDataRate	OrigDataStartFrame	OrigNumFrames
100.00	100.00	      35	9	mm	100.00	2813	      7500
Frame#	Time	front left toe			Front right toe			aft left toe			aft right toe			Arm			FL body			FR body			AL Body			AR Body			
		X1	Y1	Z1	X2	Y2	Z2	X3	Y3	Z3	X4	Y4	Z4	X5	Y5	Z5	X6	Y6	Z6	X7	Y7	Z7	X8	Y8	Z8	X9	Y9	Z9	

2813	28.120	-151.07179	19.01003	-176.14444	247.68199	128.84271	-207.91479	-64.64928	111.91934	448.66742	288.06342	14.36850	407.88196	90.74461	1143.62183	-611.09528	-35.77276	594.18219	-319.76010	122.90452	586.01575	-336.66681	59.60068	547.92523	621.25238	215.17264	533.99725	604.58423	
2814	28.130	-152.35934	18.86117	-176.38980	248.04832	139.26181	-210.50078	-63.41808	123.20540	445.81723	286.70847	14.81566	407.39417	88.57062	1142.37378	-612.99731	-36.20868	593.03992	-320.51965	122.68469	584.89111	-337.26785	59.55518	549.20917	619.88904	215.50291	535.11188	603.68597	
2815	28.140	-153.00255	18.41792	-176.76274	248.80168	147.77148	-213.10266	-61.49564	132.97282	443.52066	286.07333	15.74023	407.31094	86.30228	1141.28076	-614.98999	-36.98205	592.42230	-321.28497	122.40627	583.96118	-338.43515	59.94341	550.41876	619.35229	215.49237	536.47540	602.61316	
2816	28.150	-154.13115	17.94778	-177.07120	250.39232	153.55461	-215.12149	-60.20723	139.80067	441.84827	285.34424	16.47279	407.16370	84.62491	1139.95215	-617.28375	-37.71175	590.97266	-322.18454	121.69820	583.05316	-339.50729	59.72865	551.66614	618.37415	215.52615	537.85809	601.58899	
2817	28.160	-155.21149	17.55553	-176.95934	252.05971	156.98573	-217.02995	-59.11806	143.59541	440.61511	283.88913	17.13599	406.88495	83.26378	1138.14490	-619.66144	-38.71854	589.85175	-322.85159	120.42595	582.30060	-340.42429	60.19802	552.74762	617.81866	215.85095	539.12445	600.53876	
2818	28.170	-156.00172	16.89597	-177.38046	253.65186	157.82065	-219.36897	-58.52196	144.87007	439.57199	283.03152	17.98307	406.31812	82.07455	1136.06091	-621.89063	-39.68219	589.24658	-323.59436	119.25049	581.77130	-341.47263	60.46676	553.77612	616.51880	216.44539	540.36157	599.48743	
2819	28.180	-157.05739	16.59567	-177.45795	255.05853	156.25415	-221.30177	-57.04459	143.86945	438.37390	282.28876	18.49501	405.89160	80.67552	1134.27747	-624.21857	-40.63567	588.54395	-324.37790	118.79001	581.27252	-342.47479	61.45573	555.02002	616.20984	216.93451	541.64600	598.36871	
2820	28.190	-157.86998	16.66956	-177.70724	256.31528	152.98834	-223.57504	-55.42766	141.47649	437.11313	281.24933	19.23077	405.47958	79.10342	1132.90442	-626.34692	-41.62359	588.15021	-325.39697	117.83903	580.81219	-343.79108	61.92916	556.20367	614.54120	217.70444	542.92731	596.93927	
2821	28.200	-158.94742	16.23105	-177.92554	256.99951	148.81270	-226.29704	-53.32602	137.64540	435.85995	280.61356	20.01813	405.19260	77.27999	1131.88208	-628.31073	-42.44241	587.29639	-326.43982	117.02656	580.44189	-344.96539	62.25359	557.20038	613.36926	218.05707	544.31305	595.79047	
2822	28.210	-159.96960	15.62678	-178.22650	256.75815	143.03760	-229.75816	-51.49524	132.71292	434.17618	280.04166	20.80359	404.87918	74.44600	1131.27441	-630.52557	-43.06149	586.49103	-327.46848	115.84708	579.59045	-346.00903	63.36364	557.97729	612.49652	218.70876	545.19751	594.34985	
2823	28.220	-160.41107	15.21909	-178.41040	256.46280	136.55942	-233.24570	-49.37991	126.35329	431.67078	278.81213	21.23740	404.44501	71.73203	1130.67773	-632.46161	-43.95256	585.70673	-328.75610	114.87965	578.90765	-347.21112	64.07101	558.89288	610.69257	219.11543	546.39423	592.93787	
2824	28.230	-161.57718	14.52698	-178.75058	256.37790	128.98308	-237.01964	-47.40766	119.80831	428.86633	278.19586	21.92506	403.99295	69.30374	1130.22119	-634.12567	-44.35836	585.04834	-329.85754	114.76856	578.43567	-349.12726	64.63160	559.51776	609.27063	219.82295	547.17456	591.25598	
2825	28.240	-162.27470	14.16760	-178.91475	256.25595	120.98373	-241.31560	-43.79993	110.44299	426.50592	277.58472	22.63272	403.43686	67.44373	1129.57300	-636.21252	-45.36043	584.64496	-331.43784	114.14042	578.27484	-350.68826	65.92972	560.13568	608.34015	220.62370	548.03656	589.47253	
2826	28.250	-163.01334	13.99731	-179.18269	256.71524	113.15947	-246.11580	-42.36414	101.87849	423.00150	276.56076	23.02150	403.11874	65.38565	1128.60693	-638.60236	-46.02286	583.97717	-332.74222	112.77692	577.70367	-351.94305	66.73015	560.87683	606.24945	221.49173	549.21173	587.90973	
2827	28.260	-163.79668	13.47575	-179.63190	257.12506	105.18779	-251.10522	-40.15230	92.24596	419.21384	276.01514	23.76425	402.82629	63.44243	1127.48682	-641.04816	-46.67102	583.21832	-334.09576	111.97985	577.48138	-353.75964	68.06808	561.24207	604.79663	222.16034	550.04388	586.02637	
2828	28.270	-164.74306	12.84428	-179.84515	258.15768	97.15041	-255.50964	-37.94750	83.17749	415.31006	275.45297	24.49588	402.37988	61.87445	1126.20483	-643.46674	-47.51014	582.34430	-335.66782	111.64965	577.21558	-355.67847	68.85805	561.93671	603.04431	222.80640	551.08258	584.26093	
2829	28.280	-165.67017	12.56911	-180.06636	257.99390	88.50370	-259.78009	-35.18639	74.62636	411.23428	274.86832	24.96710	401.77942	60.34526	1125.19604	-645.74237	-48.41188	581.79285	-337.19016	111.03228	576.73926	-357.50882	69.72974	562.44470	601.16949	223.81468	551.82959	582.60504	
2830	28.290	-165.95265	12.18768	-180.26932	258.09833	80.15670	-263.46698	-33.02245	66.02028	407.75879	273.82117	25.47476	401.23422	57.73718	1124.29724	-648.38336	-48.94456	581.03186	-338.79132	109.64090	576.26575	-359.03424	70.42628	562.92242	599.36261	224.27600	552.97943	580.11230	
2831	28.300	-166.88589	11.63632	-180.53955	258.24384	71.94164	-266.25317	-30.99446	57.28435	405.16531	273.28473	26.16925	401.01254	55.43207	1123.93396	-650.78717	-49.39388	580.37683	-340.64987	109.76389	576.06897	-361.52808	71.67373	563.23566	597.43317	225.47878	553.93250	578.03656	
2832	28.310	-167.49248	11.52327	-180.73468	258.52817	63.59367	-268.82507	-29.75387	48.55109	402.93274	272.80038	26.92112	400.50540	52.51588	1123.45874	-653.43292	-49.96884	579.72321	-342.65530	108.99364	575.95178	-363.65881	72.02807	564.21478	595.30652	226.36093	554.80267	575.91516	
2833	28.320	-168.23682	11.21849	-181.14011	258.94519	55.83565	-271.01450	-29.07995	40.76457	401.22287	272.45996	27.32518	400.15402	49.59517	1123.00146	-655.80292	-50.31809	579.18652	-344.62537	107.85374	575.38336	-365.56619	73.06947	564.33429	593.34235	227.14223	555.59033	573.33112	
2834	28.330	-168.85378	10.55119	-181.37299	258.86584	48.91502	-273.46875	-29.23345	33.87634	399.05313	271.56146	28.05460	399.42114	46.46901	1122.48120	-658.28552	-51.00069	578.33026	-346.85623	108.26345	575.42047	-368.26309	73.74676	565.04578	590.89203	228.17197	556.44189	570.77838	
2835	28.340	-169.39522	10.24251	-181.60573	259.53793	42.52770	-275.94696	-29.48995	28.58258	396.51587	270.71802	28.40950	399.01392	42.90690	1121.96899	-661.23322	-51.46922	578.02954	-349.04358	107.11481	574.98285	-369.90170	75.31913	565.03766	588.28888	229.06299	557.30566	568.14233	
2836	28.350	-169.79726	9.99196	-181.91235	259.86795	36.27263	-278.85611	-31.14367	29.39139	394.52264	270.54074	29.16572	398.83493	40.59049	1121.41956	-663.68915	-51.85815	577.53693	-351.38107	106.48839	574.83264	-372.34018	76.10001	565.95227	585.99237	230.36298	558.21545	565.43719	
2837	28.360	-170.11508	9.98981	-182.23524	260.05954	29.68672	-281.89676	-31.69578	28.38444	394.23740	270.22028	29.73485	398.39886	37.77502	1121.00146	-666.90802	-52.37563	576.92694	-353.77481	106.78777	574.44305	-375.95883	77.25128	568.36707	583.42810	231.58536	560.22766	562.36450	
2838	28.370	-170.61920	9.52168	-182.44940	259.63248	22.44779	-284.85654	-31.99236	30.77539	394.92517	269.73822	31.00814	397.61017	35.65784	1120.45496	-670.70349	-53.22771	575.78015	-356.09262	105.33573	573.69910	-378.45132	78.90829	570.17987	580.68982	232.71649	562.57330	559.49396	
2839	28.380	-171.00397	8.69055	-182.65172	258.16965	9.89408	-286.15268	-31.68120	32.62140	394.85239	269.29233	31.55587	397.07785	33.71831	1119.20105	-675.61713	-53.88461	575.05859	-358.26855	104.46171	573.05017	-380.54929	79.79604	572.46021	578.02856	234.04240	564.90723	556.67084	
2840	28.390	-171.34253	8.52651	-182.64240	257.69614	2.52538	-291.11819	-31.96346	32.33213	394.40277	268.87122	32.16715	396.72107	32.01308	1117.12109	-680.26123	-54.52981	574.37683	-360.69449	103.83878	572.67480	-383.12033	81.27081	574.15173	575.66119	235.25928	566.90649	553.85193	
2841	28.400	-171.31125	8.30984	-183.41219	259.09784	1.47837	-289.78931	-33.14945	33.50138	394.48370	268.09830	32.47566	395.45157	30.88942	1114.47498	-684.52917	-55.23355	575.13550	-362.74622	102.78547	574.32550	-385.50430	82.54095	574.56293	572.65295	236.69698	568.73938	551.01825	
2842	28.410	-169.52045	11.11111	-184.99165	258.54343	1.27137	-289.26563	-31.90065	33.88308	393.11145	268.17053	35.55478	395.07324	29.72016	1112.66333	-687.69891	-55.14756	575.90265	-364.82104	102.67422	575.84955	-388.22092	83.42314	576.96149	570.66064	237.65083	570.53766	548.87439	
2843	28.420	-165.16711	14.54418	-184.20772	257.18237	1.30797	-291.08298	-31.92358	34.06217	391.97861	266.29916	39.70675	397.37967	27.07485	1112.88782	-690.27429	-56.13437	577.12122	-367.27551	102.38214	576.72552	-391.02530	84.55000	578.39209	568.26080	238.95316	572.65588	545.88940	
2844	28.430	-160.54857	19.37100	-181.45018	257.01935	0.63511	-290.58789	-32.40791	34.88017	391.94748	263.77237	48.84381	398.74591	23.82040	1114.45313	-692.20715	-56.66774	576.32013	-369.41782	102.21915	576.72534	-393.81830	85.21764	580.07166	565.96765	239.10001	574.49896	543.49390	
2845	28.440	-158.72215	28.15096	-182.13672	256.83704	-0.04799	-291.27814	-32.71613	35.41561	391.53592	262.80765	59.12531	398.50363	19.66586	1116.16736	-694.43976	-57.19074	575.11646	-371.38971	102.42803	576.51678	-395.86472	85.26910	581.63251	563.65387	239.15453	576.73541	541.21008	
2846	28.450	-157.38327	38.59021	-183.12700	256.90738	-0.62111	-291.36725	-32.73676	35.60350	391.40610	263.18494	72.86288	396.93091	16.35928	1117.04895	-696.55273	-57.20030	573.91150	-373.13336	101.04174	574.73932	-397.43103	84.90101	583.77454	561.68134	238.91711	578.34552	539.37897	
2847	28.460	-158.50406	50.67210	-185.93282	256.86203	-1.39569	-291.43738	-33.00906	35.90337	391.18454	266.33875	85.19379	393.29684	14.04093	1116.24475	-698.78943	-57.56455	573.00183	-374.94171	100.64309	573.79773	-399.17261	84.91221	584.78735	560.18372	238.61116	579.65973	537.98077	
